<?xml version="1.0" encoding="utf-8"?>
<!-- Generator: Adobe Illustrator 23.0.3, SVG Export Plug-In . SVG Version: 6.00 Build 0)  -->
<svg version="1.1" id="Layer_1" xmlns="http://www.w3.org/2000/svg" xmlns:xlink="http://www.w3.org/1999/xlink" x="0px" y="0px"
	 viewBox="0 0 481 481" style="enable-background:new 0 0 481 481;" xml:space="preserve">
<style type="text/css">
	.st0{fill:url(#SVGID_1_);}
</style>
<linearGradient id="SVGID_1_" gradientUnits="userSpaceOnUse" x1="26.5003" y1="240.4578" x2="453.7151" y2="240.4578">
	<stop  offset="0" style="stop-color:#804D85"/>
	<stop  offset="1" style="stop-color:#41BDBD"/>
</linearGradient>
<path class="st0" d="M191.2,129.3c0-6.2-5-11.2-11.2-11.2c-6.2,0-11.2,5-11.2,11.2v35.9c-0.1,41.8-31,77.2-72.4,82.9V67
	c0-6.2-5-11.2-11.2-11.2c-6.2,0-11.2,5-11.2,11.2V260c0,6.2,5,11.2,11.2,11.2c58.6-0.1,106-47.5,106.1-106.1V129.3z M330.3,277.7
	h80.6c23.6,0,42.8-19.2,42.8-42.8v-71.2c0-20-16.2-36.1-36.1-36.1h-83c-2.9,0-5.6-1.4-7.2-3.7L262.7,33c-8-11.3-21-18-34.9-18H87.6
	c-33.7,0-61,27.4-61.1,61.1v378.7c0,6.2,5,11.2,11.2,11.2h158.1c6.2,0,11.2-5,11.2-11.2v-29.6c17.8,19.2,44.4,27.3,69.9,21.4
	c6-1.4,9.8-7.4,8.4-13.5c-8.1-34.9-40.4-58.8-76.1-56.2c11-57.3,61.1-98.8,119.5-98.9C329.2,277.8,329.8,277.8,330.3,277.7z
	 M241,406.6c7.6,4.7,13.8,11.3,18,19.2c-18.2-0.6-34.6-10.8-43.1-26.9C224.7,399.3,233.4,401.9,241,406.6z M431.3,163.7v20.7
	L391.5,150h26C425.1,150,431.3,156.1,431.3,163.7z M184.6,399.4v1.8H48.9v-23.7h137.4C185.2,384.8,184.6,392.1,184.6,399.4
	L184.6,399.4z M48.9,443.5v-19.8h135.7v19.8H48.9z M191.3,255c18.8,11.8,40,19.2,62,21.7c-29.2,18-51,45.8-61.6,78.4H48.9V76.1
	c0-21.3,17.3-38.6,38.6-38.6h140.2c6.6,0,12.8,3.2,16.6,8.6l64.7,90.8c5.9,8.3,15.4,13.1,25.5,13.2H358l-0.3,0.3l72.7,63l0.9-1v22.5
	c0,11.3-9.1,20.4-20.4,20.4H270.2c-23.7,0-46.9-6.7-67-19.3c-5.2-3.3-12.2-1.7-15.4,3.6C184.5,244.8,186,251.7,191.3,255L191.3,255z
	 M230.1,130.5c13.1,0,23.7-10.6,23.7-23.7c0-13.1-10.6-23.7-23.7-23.7c-13.1,0-23.7,10.6-23.7,23.7
	C206.5,119.9,217.1,130.5,230.1,130.5z M230.1,105.6c0.7,0,1.2,0.6,1.2,1.2c0,0.7-0.6,1.2-1.2,1.2c-0.7,0-1.2-0.6-1.2-1.2
	C228.9,106.1,229.4,105.6,230.1,105.6z"/>
</svg>
